<?xml version="1.0" encoding="UTF-8" standalone="no"?>
<!-- Created with Inkscape (http://www.inkscape.org/) -->

<svg
   width="1024"
   height="1024"
   viewBox="0 0 270.93334 270.93334"
   version="1.1"
   id="svg1"
   xml:space="preserve"
   inkscape:version="1.4.2 (ebf0e940, 2025-05-08)"
   sodipodi:docname="icon-moon.svg"
   inkscape:export-filename="Icon.png"
   inkscape:export-xdpi="192.00002"
   inkscape:export-ydpi="192.00002"
   xmlns:inkscape="http://www.inkscape.org/namespaces/inkscape"
   xmlns:sodipodi="http://sodipodi.sourceforge.net/DTD/sodipodi-0.dtd"
   xmlns:xlink="http://www.w3.org/1999/xlink"
   xmlns="http://www.w3.org/2000/svg"
   xmlns:svg="http://www.w3.org/2000/svg"><sodipodi:namedview
     id="namedview1"
     pagecolor="#ffffff"
     bordercolor="#000000"
     borderopacity="0.25"
     inkscape:showpageshadow="false"
     inkscape:pageopacity="0.0"
     inkscape:pagecheckerboard="0"
     inkscape:deskcolor="#d1d1d1"
     inkscape:document-units="px"
     showborder="true"
     borderlayer="false"
     inkscape:zoom="0.89380337"
     inkscape:cx="189.63903"
     inkscape:cy="435.77817"
     inkscape:window-width="3440"
     inkscape:window-height="1384"
     inkscape:window-x="0"
     inkscape:window-y="0"
     inkscape:window-maximized="0"
     inkscape:current-layer="svg1"
     showguides="true" /><defs
     id="defs1"><linearGradient
       id="swatch162"
       inkscape:swatch="solid"><stop
         style="stop-color:#000000;stop-opacity:1;"
         offset="0"
         id="stop162" /></linearGradient><filter
       style="color-interpolation-filters:sRGB"
       inkscape:label="Drop Shadow"
       id="filter158"
       x="-0.018897638"
       y="-0.018897638"
       width="1.0377953"
       height="1.0456693"><feFlood
         result="flood"
         in="SourceGraphic"
         flood-opacity="0.501961"
         flood-color="rgb(0,0,0)"
         id="feFlood157" /><feGaussianBlur
         result="blur"
         in="SourceGraphic"
         stdDeviation="1.000000"
         id="feGaussianBlur157" /><feOffset
         result="offset"
         in="blur"
         dx="0.000000"
         dy="1.000000"
         id="feOffset157" /><feComposite
         result="comp1"
         operator="in"
         in="flood"
         in2="offset"
         id="feComposite157" /><feComposite
         result="comp2"
         operator="over"
         in="SourceGraphic"
         id="feComposite158" /></filter><filter
       style="color-interpolation-filters:sRGB"
       inkscape:label="Drop Shadow"
       id="filter5"
       x="-0.027520832"
       y="-0.027520832"
       width="1.0550417"
       height="1.061922"><feFlood
         result="flood"
         in="SourceGraphic"
         flood-opacity="0.75"
         flood-color="rgb(0,0,0)"
         id="feFlood4" /><feGaussianBlur
         result="blur"
         in="SourceGraphic"
         stdDeviation="1.25"
         id="feGaussianBlur4" /><feOffset
         result="offset"
         in="blur"
         dx="0.000000"
         dy="0.75"
         id="feOffset4" /><feComposite
         result="comp1"
         operator="in"
         in="flood"
         in2="offset"
         id="feComposite4" /><feComposite
         result="comp2"
         operator="over"
         in="SourceGraphic"
         in2="comp1"
         id="feComposite5" /></filter><linearGradient
       inkscape:collect="always"
       xlink:href="#linearGradient2"
       id="linearGradient1"
       x1="42.619091"
       y1="45.088207"
       x2="91.249947"
       y2="93.719063"
       gradientUnits="userSpaceOnUse"
       gradientTransform="matrix(2.4857143,0,0,2.4857143,-32.899035,-32.899039)" /><linearGradient
       id="linearGradient2"
       inkscape:collect="always"><stop
         style="stop-color:#fff6b3;stop-opacity:1;"
         offset="0"
         id="stop1" /><stop
         style="stop-color:#ffe100;stop-opacity:1;"
         offset="1"
         id="stop2" /></linearGradient></defs><path
     d="m 136.36911,201.25066 c -8.80127,0 -17.07596,-1.61742 -24.82411,-4.85226 -7.67293,-3.30988 -14.443167,-7.89859 -20.310671,-13.76614 -5.79231,-5.86751 -10.343406,-12.63773 -13.653307,-20.31067 -3.309878,-7.6729 -4.964816,-15.91 -4.964816,-24.71131 0,-6.69497 0.940394,-13.05146 2.821136,-19.06947 1.95576,-6.09317 4.663845,-11.65978 8.124233,-16.69983 3.53568,-5.115283 7.63542,-9.591159 12.29924,-13.427629 4.663945,-3.911674 9.741615,-7.033506 15.233005,-9.36549 2.10617,-0.902482 3.76111,-0.790348 4.96479,0.336398 1.20371,1.05328 1.39123,2.745914 0.56262,5.0779 -1.12829,2.783228 -2.03098,5.980264 -2.70804,9.591104 -0.67703,3.6107 -1.01556,7.146257 -1.01556,10.606687 0,18.2796 4.96484,32.45946 14.8945,42.5396 10.0049,10.00488 24.14712,15.00733 42.42671,15.00733 3.46029,0 6.92063,-0.30083 10.38102,-0.90249 3.46029,-0.67706 6.31881,-1.39162 8.57559,-2.14368 1.95576,-0.67706 3.46029,-0.41374 4.51356,0.78996 1.12829,1.2037 1.16697,2.82093 0.11608,4.85169 -3.15944,6.84547 -7.5601,13.05151 -13.20195,18.61812 -5.64185,5.49141 -12.224,9.85444 -19.74647,13.0891 -7.52246,3.15945 -15.68436,4.73916 -24.4856,4.73916 z"
     id="path1"
     style="font-size:121.811px;font-family:'SF Pro';-inkscape-font-specification:'SF Pro';text-align:center;text-anchor:middle;display:inline;fill:url(#linearGradient1);fill-opacity:1;stroke-width:8.23738;stroke-linecap:round"
     aria-label="􀆻"
     inkscape:label="moon"
     sodipodi:nodetypes="cccssccccccsscscccccccc" /></svg>
