<?xml version="1.0" encoding="UTF-8" standalone="no"?>
<!-- Created with Inkscape (http://www.inkscape.org/) -->

<svg
   width="1024"
   height="1024"
   viewBox="0 0 270.93334 270.93334"
   version="1.1"
   id="svg1"
   xml:space="preserve"
   inkscape:version="1.4.2 (ebf0e940, 2025-05-08)"
   sodipodi:docname="icon-circle.svg"
   inkscape:export-filename="Icon.png"
   inkscape:export-xdpi="192.00002"
   inkscape:export-ydpi="192.00002"
   xmlns:inkscape="http://www.inkscape.org/namespaces/inkscape"
   xmlns:sodipodi="http://sodipodi.sourceforge.net/DTD/sodipodi-0.dtd"
   xmlns:xlink="http://www.w3.org/1999/xlink"
   xmlns="http://www.w3.org/2000/svg"
   xmlns:svg="http://www.w3.org/2000/svg"><sodipodi:namedview
     id="namedview1"
     pagecolor="#ffffff"
     bordercolor="#000000"
     borderopacity="0.25"
     inkscape:showpageshadow="false"
     inkscape:pageopacity="0.0"
     inkscape:pagecheckerboard="0"
     inkscape:deskcolor="#d1d1d1"
     inkscape:document-units="px"
     showborder="true"
     borderlayer="false"
     inkscape:zoom="0.72171239"
     inkscape:cx="129.55299"
     inkscape:cy="514.74799"
     inkscape:window-width="3440"
     inkscape:window-height="1384"
     inkscape:window-x="0"
     inkscape:window-y="0"
     inkscape:window-maximized="0"
     inkscape:current-layer="svg1"
     showguides="true" /><defs
     id="defs1"><linearGradient
       id="swatch162"
       inkscape:swatch="solid"><stop
         style="stop-color:#000000;stop-opacity:1;"
         offset="0"
         id="stop162" /></linearGradient><filter
       style="color-interpolation-filters:sRGB"
       inkscape:label="Drop Shadow"
       id="filter158"
       x="-0.018897638"
       y="-0.018897638"
       width="1.0377953"
       height="1.0456693"><feFlood
         result="flood"
         in="SourceGraphic"
         flood-opacity="0.501961"
         flood-color="rgb(0,0,0)"
         id="feFlood157" /><feGaussianBlur
         result="blur"
         in="SourceGraphic"
         stdDeviation="1.000000"
         id="feGaussianBlur157" /><feOffset
         result="offset"
         in="blur"
         dx="0.000000"
         dy="1.000000"
         id="feOffset157" /><feComposite
         result="comp1"
         operator="in"
         in="flood"
         in2="offset"
         id="feComposite157" /><feComposite
         result="comp2"
         operator="over"
         in="SourceGraphic"
         id="feComposite158" /></filter><filter
       style="color-interpolation-filters:sRGB"
       inkscape:label="Drop Shadow"
       id="filter5"
       x="-0.027520832"
       y="-0.027520832"
       width="1.0550417"
       height="1.061922"><feFlood
         result="flood"
         in="SourceGraphic"
         flood-opacity="0.75"
         flood-color="rgb(0,0,0)"
         id="feFlood4" /><feGaussianBlur
         result="blur"
         in="SourceGraphic"
         stdDeviation="1.25"
         id="feGaussianBlur4" /><feOffset
         result="offset"
         in="blur"
         dx="0.000000"
         dy="0.75"
         id="feOffset4" /><feComposite
         result="comp1"
         operator="in"
         in="flood"
         in2="offset"
         id="feComposite4" /><feComposite
         result="comp2"
         operator="over"
         in="SourceGraphic"
         in2="comp1"
         id="feComposite5" /></filter><linearGradient
       inkscape:collect="always"
       xlink:href="#linearGradient4"
       id="linearGradient3-8"
       x1="113.79404"
       y1="21.577929"
       x2="21.792633"
       y2="113.68669"
       gradientUnits="userSpaceOnUse"
       gradientTransform="matrix(2.4857143,0,0,2.4857143,-32.899035,-32.899039)" /><linearGradient
       id="linearGradient4"
       inkscape:collect="always"><stop
         style="stop-color:#fff6b3;stop-opacity:1;"
         offset="0"
         id="stop3-5" /><stop
         style="stop-color:#ffe100;stop-opacity:1;"
         offset="0.9996773"
         id="stop4-5" /></linearGradient></defs><path
     d="m 135.46664,250.56041 c -15.8724,0 -30.76687,-3.00897 -44.683443,-9.02695 C 76.866652,235.5907 64.642654,227.3536 54.111207,216.82216 43.579707,206.2907 35.304988,194.06671 29.287024,180.15015 23.344278,166.2336 20.372878,151.3391 20.372878,135.46665 c 0,-15.87239 2.9714,-30.76687 8.914146,-44.683419 C 35.304988,76.866674 43.579707,64.64267 54.111207,54.111223 64.642654,43.504531 76.866652,35.229806 90.783197,29.28705 c 13.916573,-5.942758 28.811043,-8.914136 44.683443,-8.914136 15.87243,0 30.76693,2.971378 44.6835,8.914136 13.91655,5.942756 26.14054,14.217481 36.672,24.824173 10.53144,10.531447 18.76854,22.755451 24.7113,36.672008 6.018,13.916549 9.02699,28.811029 9.02699,44.683419 0,15.87245 -3.00899,30.76695 -9.02699,44.6835 -5.94276,13.91656 -14.17986,26.14055 -24.7113,36.67201 -10.53146,10.53144 -22.75545,18.76854 -36.672,24.7113 -13.91657,6.01798 -28.81107,9.02695 -44.6835,9.02695 z m 0,-19.18227 c 13.23954,0 25.65163,-2.48242 37.23623,-7.4472 11.58462,-4.96486 21.77757,-11.84794 30.57883,-20.64922 8.8013,-8.80127 15.68436,-18.99421 20.64916,-30.57882 4.96484,-11.58462 7.44724,-23.9967 7.44724,-37.23625 0,-13.23954 -2.4824,-25.6516 -7.44724,-37.23617 C 218.96606,86.570631 212.083,76.377678 203.2817,67.651614 194.48044,58.850346 184.28749,51.967291 172.70287,47.002453 c -11.5846,-4.96484 -23.99669,-7.447258 -37.23623,-7.447258 -13.23953,0 -25.6516,2.482418 -37.236168,7.447258 C 86.645849,51.967291 76.452906,58.850346 67.651588,67.651614 58.85032,76.377678 51.967277,86.570631 47.002435,98.23048 c -4.964816,11.58457 -7.4472,23.99663 -7.4472,37.23617 0,13.23955 2.482384,25.65163 7.4472,37.23625 4.964842,11.58461 11.847885,21.77755 20.649153,30.57882 8.801318,8.80128 18.994261,15.68436 30.578884,20.64922 11.584568,4.96478 23.996638,7.4472 37.236168,7.4472 z"
     id="text1"
     style="font-size:121.811px;font-family:'SF Pro';-inkscape-font-specification:'SF Pro';text-align:center;text-anchor:middle;display:inline;fill:url(#linearGradient3-8);fill-opacity:1;stroke-width:8.23738;stroke-linecap:round"
     aria-label="􀆻"
     inkscape:label="circle"
     sodipodi:nodetypes="scscsccsssccscscssssssccsssccsssss" /></svg>
