<?xml version="1.0" encoding="UTF-8" standalone="no"?>
<!-- Created with Inkscape (http://www.inkscape.org/) -->

<svg
   width="1024"
   height="1024"
   viewBox="0 0 270.93334 270.93334"
   version="1.1"
   id="svg1"
   xml:space="preserve"
   inkscape:version="1.4.2 (ebf0e940, 2025-05-08)"
   sodipodi:docname="icon.svg"
   inkscape:export-filename="Icon.png"
   inkscape:export-xdpi="192.00002"
   inkscape:export-ydpi="192.00002"
   xmlns:inkscape="http://www.inkscape.org/namespaces/inkscape"
   xmlns:sodipodi="http://sodipodi.sourceforge.net/DTD/sodipodi-0.dtd"
   xmlns:xlink="http://www.w3.org/1999/xlink"
   xmlns="http://www.w3.org/2000/svg"
   xmlns:svg="http://www.w3.org/2000/svg"><sodipodi:namedview
     id="namedview1"
     pagecolor="#ffffff"
     bordercolor="#000000"
     borderopacity="0.25"
     inkscape:showpageshadow="false"
     inkscape:pageopacity="0.0"
     inkscape:pagecheckerboard="0"
     inkscape:deskcolor="#d1d1d1"
     inkscape:document-units="px"
     showborder="true"
     borderlayer="false"
     inkscape:zoom="0.74149379"
     inkscape:cx="467.97425"
     inkscape:cy="383.68494"
     inkscape:window-width="3440"
     inkscape:window-height="1384"
     inkscape:window-x="0"
     inkscape:window-y="0"
     inkscape:window-maximized="0"
     inkscape:current-layer="svg1"
     showguides="true" /><defs
     id="defs1"><linearGradient
       id="linearGradient1"
       inkscape:collect="always"><stop
         style="stop-color:#ffe100;stop-opacity:1;"
         offset="0"
         id="stop1" /><stop
         style="stop-color:#fff6b3;stop-opacity:1;"
         offset="1"
         id="stop2" /></linearGradient><linearGradient
       id="swatch162"
       inkscape:swatch="solid"><stop
         style="stop-color:#000000;stop-opacity:1;"
         offset="0"
         id="stop162" /></linearGradient><filter
       style="color-interpolation-filters:sRGB"
       inkscape:label="Drop Shadow"
       id="filter158"
       x="-0.018897638"
       y="-0.018897638"
       width="1.0377953"
       height="1.0456693"><feFlood
         result="flood"
         in="SourceGraphic"
         flood-opacity="0.501961"
         flood-color="rgb(0,0,0)"
         id="feFlood157" /><feGaussianBlur
         result="blur"
         in="SourceGraphic"
         stdDeviation="1.000000"
         id="feGaussianBlur157" /><feOffset
         result="offset"
         in="blur"
         dx="0.000000"
         dy="1.000000"
         id="feOffset157" /><feComposite
         result="comp1"
         operator="in"
         in="flood"
         in2="offset"
         id="feComposite157" /><feComposite
         result="comp2"
         operator="over"
         in="SourceGraphic"
         id="feComposite158" /></filter><filter
       style="color-interpolation-filters:sRGB"
       inkscape:label="Drop Shadow"
       id="filter5"
       x="-0.027520832"
       y="-0.027520832"
       width="1.0550417"
       height="1.061922"><feFlood
         result="flood"
         in="SourceGraphic"
         flood-opacity="0.75"
         flood-color="rgb(0,0,0)"
         id="feFlood4" /><feGaussianBlur
         result="blur"
         in="SourceGraphic"
         stdDeviation="1.25"
         id="feGaussianBlur4" /><feOffset
         result="offset"
         in="blur"
         dx="0.000000"
         dy="0.75"
         id="feOffset4" /><feComposite
         result="comp1"
         operator="in"
         in="flood"
         in2="offset"
         id="feComposite4" /><feComposite
         result="comp2"
         operator="over"
         in="SourceGraphic"
         in2="comp1"
         id="feComposite5" /></filter><linearGradient
       inkscape:collect="always"
       xlink:href="#linearGradient1"
       id="linearGradient2"
       x1="-63.137737"
       y1="215.28932"
       x2="145.4238"
       y2="5.1752243"
       gradientUnits="userSpaceOnUse"
       gradientTransform="translate(93.834871,24.571107)" /></defs><path
     d="m 135.46664,241.30001 q -21.89292,0 -41.088236,-8.30066 -19.195249,-8.19689 -33.721392,-22.72304 -14.526142,-14.52614 -22.826767,-33.7214 -8.196886,-19.19526 -8.196886,-41.08824 0,-21.89298 8.196886,-41.088239 8.300624,-19.195262 22.826767,-33.721405 14.526143,-14.629901 33.721392,-22.826794 19.195316,-8.196899 41.088236,-8.196899 21.89298,0 41.08823,8.196899 19.19532,8.196893 33.72146,22.826794 14.52614,14.526143 22.72303,33.721405 8.30062,19.195259 8.30062,41.088239 0,21.89298 -8.30062,41.08824 -8.19689,19.19526 -22.72303,33.7214 -14.52614,14.52615 -33.72146,22.72304 -19.19525,8.30066 -41.08823,8.30066 z m 0,-17.63889 q 18.26147,0 34.24022,-6.84804 15.97875,-6.84804 28.1185,-18.98775 12.13969,-12.13971 18.98771,-28.11846 6.84801,-15.97876 6.84801,-34.2402 0,-18.26144 -6.84801,-34.2402 -6.84802,-16.082511 -18.98771,-28.11846 -12.13975,-12.139708 -28.1185,-18.987745 -15.97875,-6.848043 -34.24022,-6.848043 -18.2614,0 -34.24015,6.848043 -15.978753,6.848037 -28.118507,18.987745 -12.139688,12.035949 -18.987705,28.11846 -6.848084,15.97876 -6.848084,34.2402 0,18.26144 6.848084,34.2402 6.848017,15.97875 18.987705,28.11846 12.139754,12.13971 28.118507,18.98775 15.97875,6.84804 34.24015,6.84804 z m -1.45234,-28.11847 q -11.93214,0 -22.2042,-4.04654 -10.27206,-4.04654 -17.950188,-11.41339 -7.574321,-7.36683 -11.828405,-17.32762 -4.25395,-10.06454 -4.25395,-22.10049 0,-11.41339 4.150212,-21.89297 4.25395,-10.58334 11.724666,-18.57272 7.574385,-7.989374 17.638905,-11.932182 3.42404,-1.452608 5.18759,0.311216 1.76423,1.660151 0.52204,4.565367 -1.3486,3.52778 -2.38665,9.130719 -1.03739,5.60295 -1.03739,10.27206 0,14.73366 5.91444,25.52451 6.01817,10.79085 16.80886,16.70507 10.89462,5.81043 25.5245,5.81043 5.08386,0 9.85704,-0.93385 4.87638,-0.93385 7.8856,-1.97144 3.21657,-1.03758 4.66891,0.93385 1.45234,1.97144 0.20748,4.87665 -3.52778,8.9232 -10.99837,16.18628 -7.36684,7.15932 -17.53516,11.51716 -10.16832,4.35782 -21.89299,4.35782 z m 30.91998,-66.19771 q -1.9717,0 -2.17918,-2.28271 -0.93365,-6.84804 -1.97103,-10.6871 -0.93365,-3.9428 -3.00909,-5.91424 -2.07544,-1.97143 -6.22565,-3.11276 -4.04647,-1.14132 -11.30965,-2.49019 -2.17918,-0.31122 -2.17918,-2.38646 0,-2.07517 2.17918,-2.28271 7.26304,-1.037589 11.30965,-2.075175 4.04647,-1.037587 6.12191,-3.112759 2.07544,-2.075173 3.00909,-6.121713 1.03739,-4.046541 2.07544,-10.998363 0.20748,-2.178911 2.17918,-2.178911 2.07544,0 2.28292,2.178911 1.03738,6.848037 1.9717,10.790845 1.03738,3.839063 3.11283,5.914236 2.17917,1.971434 6.22565,3.112759 4.04647,1.141325 11.1021,2.49019 2.17918,0.20748 2.17918,2.28272 0,2.17891 -2.38666,2.38646 -7.05556,1.03758 -11.2059,2.07517 -4.04648,1.03759 -6.12192,3.11276 -2.07544,2.07517 -3.11282,6.12171 -0.93365,3.9428 -1.76423,10.89461 -0.20748,2.28272 -2.28292,2.28272 z"
     id="text1"
     style="font-size:3.175px;font-family:'SF Pro';-inkscape-font-specification:'SF Pro';text-align:center;text-anchor:middle;fill:url(#linearGradient2);fill-opacity:1;stroke-width:17.708;stroke-linecap:round;stroke-opacity:0.501437"
     aria-label="ô›‹" /></svg>
