<?xml version="1.0" encoding="UTF-8" standalone="no"?>
<!-- Created with Inkscape (http://www.inkscape.org/) -->

<svg
   width="511.99997"
   height="511.99997"
   viewBox="0 0 135.46666 135.46666"
   version="1.1"
   id="svg1"
   xml:space="preserve"
   inkscape:version="1.3.2 (091e20e, 2023-11-25)"
   sodipodi:docname="icon.svg"
   inkscape:export-filename="Icon.png"
   inkscape:export-xdpi="96.000008"
   inkscape:export-ydpi="96.000008"
   xmlns:inkscape="http://www.inkscape.org/namespaces/inkscape"
   xmlns:sodipodi="http://sodipodi.sourceforge.net/DTD/sodipodi-0.dtd"
   xmlns="http://www.w3.org/2000/svg"
   xmlns:svg="http://www.w3.org/2000/svg"><sodipodi:namedview
     id="namedview1"
     pagecolor="#ffffff"
     bordercolor="#000000"
     borderopacity="0.25"
     inkscape:showpageshadow="false"
     inkscape:pageopacity="0.0"
     inkscape:pagecheckerboard="0"
     inkscape:deskcolor="#d1d1d1"
     inkscape:document-units="px"
     showborder="true"
     borderlayer="false"
     inkscape:zoom="0.92041857"
     inkscape:cx="-164.59903"
     inkscape:cy="344.95175"
     inkscape:window-width="3440"
     inkscape:window-height="1384"
     inkscape:window-x="0"
     inkscape:window-y="0"
     inkscape:window-maximized="1"
     inkscape:current-layer="svg1"
     showguides="true" /><defs
     id="defs1"><linearGradient
       id="swatch162"
       inkscape:swatch="solid"><stop
         style="stop-color:#000000;stop-opacity:1;"
         offset="0"
         id="stop162" /></linearGradient><filter
       style="color-interpolation-filters:sRGB;"
       inkscape:label="Drop Shadow"
       id="filter158"
       x="-0.018897638"
       y="-0.018897638"
       width="1.0377953"
       height="1.0456693"><feFlood
         result="flood"
         in="SourceGraphic"
         flood-opacity="0.501961"
         flood-color="rgb(0,0,0)"
         id="feFlood157" /><feGaussianBlur
         result="blur"
         in="SourceGraphic"
         stdDeviation="1.000000"
         id="feGaussianBlur157" /><feOffset
         result="offset"
         in="blur"
         dx="0.000000"
         dy="1.000000"
         id="feOffset157" /><feComposite
         result="comp1"
         operator="in"
         in="flood"
         in2="offset"
         id="feComposite157" /><feComposite
         result="comp2"
         operator="over"
         in="SourceGraphic"
         id="feComposite158" /></filter><filter
       style="color-interpolation-filters:sRGB"
       inkscape:label="Drop Shadow"
       id="filter5"
       x="-0.027520832"
       y="-0.027520832"
       width="1.0550417"
       height="1.0619219"><feFlood
         result="flood"
         in="SourceGraphic"
         flood-opacity="0.75"
         flood-color="rgb(0,0,0)"
         id="feFlood4" /><feGaussianBlur
         result="blur"
         in="SourceGraphic"
         stdDeviation="1.25"
         id="feGaussianBlur4" /><feOffset
         result="offset"
         in="blur"
         dx="0.000000"
         dy="0.75"
         id="feOffset4" /><feComposite
         result="comp1"
         operator="in"
         in="flood"
         in2="offset"
         id="feComposite4" /><feComposite
         result="comp2"
         operator="over"
         in="SourceGraphic"
         in2="comp1"
         id="feComposite5" /></filter><filter
       style="color-interpolation-filters:sRGB;"
       inkscape:label="Drop Shadow"
       id="filter7"
       x="-0.0090746079"
       y="-0.009070866"
       width="1.0181492"
       height="1.0219213"><feFlood
         result="flood"
         in="SourceGraphic"
         flood-opacity="1"
         flood-color="rgb(0,0,0)"
         id="feFlood6" /><feGaussianBlur
         result="blur"
         in="SourceGraphic"
         stdDeviation="0.5"
         id="feGaussianBlur6" /><feOffset
         result="offset"
         in="blur"
         dx="0.000000"
         dy="0.5"
         id="feOffset6" /><feComposite
         result="comp1"
         operator="in"
         in="flood"
         in2="offset"
         id="feComposite6" /><feComposite
         result="comp2"
         operator="over"
         in="SourceGraphic"
         in2="comp1"
         id="feComposite7" /></filter></defs><g
     id="g3"
     transform="matrix(0.92962151,0,0,0.92962151,51.520476,52.181866)"
     style="fill:#ffe100;fill-opacity:1;filter:url(#filter7)"><path
       d="m 9.2217243,-49.353632 c -28.1874603,3.541151 -50.6618003,24.457467 -56.8471103,52.7865547 -1.32187,6.137991 -1.41562,19.0277243 -0.1875,25.3545603 1.74687,8.970863 5.33531,17.658476 10.43468,25.260122 3.11562,4.627057 10.33998,12.087078 15.29779,15.817073 7.3653,5.52418 18.0359103,10.292893 27.1959003,12.087078 4.43812,0.897186 20.1134097,0.897186 24.5518397,0 26.44028,-5.193681 46.83744,-25.118467 52.73931,-51.558963 1.41562,-6.515679 1.55937,-20.113661 0.25,-26.3932773 -2.975,-13.928482 -8.73468,-24.5046557 -18.69717,-34.4670797 -9.72623,-9.679112 -20.11372,-15.297698 -33.23933,-17.988976 -5.52436,-1.133123 -16.14779,-1.558123 -21.4830897,-0.897186 z m 18.9805997,12.03989 c 12.08718,2.502497 23.65466,9.3958 31.3509,18.649975 13.92842,16.8086027 16.71404,39.849603 7.17655,59.302265 -8.82905,18.083414 -26.67652,29.887179 -46.36525,30.737053 -16.2418497,0.708124 -30.5009,-4.768712 -41.69088,-16.100354 -14.07029,-14.211762 -19.31091,-33.900486 -14.16467,-53.1170853 5.66593,-21.1523787 24.31591,-37.3471687 46.27088,-40.1801027 4.29655,-0.519374 13.07873,-0.1875 17.42247,0.708124 z"
       id="path1-9-7"
       style="fill:#ffe100;fill-opacity:1;stroke-width:0.0472152" /><path
       d="m 1.2895543,-14.886553 c -7.17656,3.58837 -12.7006103,9.1597374 -16.1946703,16.2420097 -2.55,5.19368 -3.39937,8.545957 -3.68281,14.7311363 -0.33125,6.657335 0.6125,11.70936 3.16344,17.091884 2.35937,4.9104 4.15499,7.50724 7.5071703,10.812267 6.94062003,6.893428 15.81717,10.529017 25.7796597,10.529017 7.41249,0 13.40904,-1.652498 19.40528,-5.240899 6.98781,-4.24937 14.35342,-13.503545 14.35342,-18.083414 0,-2.596871 -1.0875,-2.879996 -5.7603,-1.60531 -5.00468,1.321873 -14.11717,1.463748 -18.79154,0.2375 -8.30999,-2.171873 -14.91998,-7.412772 -18.2721597,-14.495044 -2.17188,-4.579869 -2.7875,-6.7989913 -3.25812,-11.8037973 -0.37813,-4.24936897 0.37812,-9.5846744 1.98437,-14.2589807 1.32187,-3.966057 1.36875,-4.343775 0.37812,-5.288087 -1.13437,-1.180311 -2.59687,-0.897186 -6.6103,1.133124 z"
       id="path2-9"
       style="fill:#ffe100;fill-opacity:1;stroke-width:0.0472152" /></g></svg>
