<?xml version="1.0" encoding="UTF-8" standalone="no"?>
<!-- Created with Inkscape (http://www.inkscape.org/) -->

<svg
   width="32"
   height="32"
   viewBox="0 0 8.4666668 8.4666668"
   version="1.1"
   id="svg1"
   xml:space="preserve"
   inkscape:version="1.4.3 (0d15f75, 2025-12-25)"
   sodipodi:docname="icon.svg"
   inkscape:export-filename="Icon.png"
   inkscape:export-xdpi="96.000008"
   inkscape:export-ydpi="96.000008"
   xmlns:inkscape="http://www.inkscape.org/namespaces/inkscape"
   xmlns:sodipodi="http://sodipodi.sourceforge.net/DTD/sodipodi-0.dtd"
   xmlns:xlink="http://www.w3.org/1999/xlink"
   xmlns="http://www.w3.org/2000/svg"
   xmlns:svg="http://www.w3.org/2000/svg"><sodipodi:namedview
     id="namedview1"
     pagecolor="#ffffff"
     bordercolor="#000000"
     borderopacity="0.25"
     inkscape:showpageshadow="false"
     inkscape:pageopacity="0.0"
     inkscape:pagecheckerboard="0"
     inkscape:deskcolor="#d1d1d1"
     inkscape:document-units="px"
     showborder="true"
     borderlayer="false"
     inkscape:zoom="18.80491"
     inkscape:cx="-2.2866368"
     inkscape:cy="18.106973"
     inkscape:window-width="3440"
     inkscape:window-height="1376"
     inkscape:window-x="0"
     inkscape:window-y="0"
     inkscape:window-maximized="1"
     inkscape:current-layer="svg1"
     showguides="true" /><defs
     id="defs1"><linearGradient
       id="swatch162"
       inkscape:swatch="solid"><stop
         style="stop-color:#000000;stop-opacity:1;"
         offset="0"
         id="stop162" /></linearGradient><filter
       style="color-interpolation-filters:sRGB"
       inkscape:label="Drop Shadow"
       id="filter158"
       x="-0.018897638"
       y="-0.018897638"
       width="1.0377953"
       height="1.0456693"><feFlood
         result="flood"
         in="SourceGraphic"
         flood-opacity="0.501961"
         flood-color="rgb(0,0,0)"
         id="feFlood157" /><feGaussianBlur
         result="blur"
         in="SourceGraphic"
         stdDeviation="1.000000"
         id="feGaussianBlur157" /><feOffset
         result="offset"
         in="blur"
         dx="0.000000"
         dy="1.000000"
         id="feOffset157" /><feComposite
         result="comp1"
         operator="in"
         in="flood"
         in2="offset"
         id="feComposite157" /><feComposite
         result="comp2"
         operator="over"
         in="SourceGraphic"
         id="feComposite158" /></filter><filter
       style="color-interpolation-filters:sRGB"
       inkscape:label="Drop Shadow"
       id="filter5"
       x="-0.027520832"
       y="-0.027520832"
       width="1.0550417"
       height="1.061922"><feFlood
         result="flood"
         in="SourceGraphic"
         flood-opacity="0.75"
         flood-color="rgb(0,0,0)"
         id="feFlood4" /><feGaussianBlur
         result="blur"
         in="SourceGraphic"
         stdDeviation="1.25"
         id="feGaussianBlur4" /><feOffset
         result="offset"
         in="blur"
         dx="0.000000"
         dy="0.75"
         id="feOffset4" /><feComposite
         result="comp1"
         operator="in"
         in="flood"
         in2="offset"
         id="feComposite4" /><feComposite
         result="comp2"
         operator="over"
         in="SourceGraphic"
         in2="comp1"
         id="feComposite5" /></filter><filter
       style="color-interpolation-filters:sRGB"
       inkscape:label="Drop Shadow"
       id="filter7"
       x="-0.0090746079"
       y="-0.0090708658"
       width="1.0181493"
       height="1.0219213"><feFlood
         result="flood"
         in="SourceGraphic"
         flood-opacity="1"
         flood-color="rgb(0,0,0)"
         id="feFlood6" /><feGaussianBlur
         result="blur"
         in="SourceGraphic"
         stdDeviation="0.5"
         id="feGaussianBlur6" /><feOffset
         result="offset"
         in="blur"
         dx="0.000000"
         dy="0.5"
         id="feOffset6" /><feComposite
         result="comp1"
         operator="in"
         in="flood"
         in2="offset"
         id="feComposite6" /><feComposite
         result="comp2"
         operator="over"
         in="SourceGraphic"
         in2="comp1"
         id="feComposite7" /></filter><filter
       style="color-interpolation-filters:sRGB"
       inkscape:label="Drop Shadow"
       id="filter17"
       x="-0.039559837"
       y="-0.039559841"
       width="1.0791197"
       height="1.0791197"><feFlood
         result="flood"
         in="SourceGraphic"
         flood-opacity="0.60000000000000009"
         flood-color="rgb(0,0,0)"
         id="feFlood16" /><feGaussianBlur
         result="blur"
         in="SourceGraphic"
         stdDeviation="2"
         id="feGaussianBlur16" /><feOffset
         result="offset"
         in="blur"
         dx="0.000000"
         dy="0.000000"
         id="feOffset16" /><feComposite
         result="comp1"
         operator="in"
         in="flood"
         in2="offset"
         id="feComposite16" /><feComposite
         result="comp2"
         operator="over"
         in="SourceGraphic"
         in2="comp1"
         id="feComposite17" /></filter><linearGradient
       inkscape:collect="always"
       xlink:href="#linearGradient1"
       id="linearGradient2"
       x1="-63.137737"
       y1="215.28932"
       x2="145.4238"
       y2="5.1752243"
       gradientUnits="userSpaceOnUse"
       gradientTransform="matrix(0.03875001,0,0,0.03875001,2.6201008,-0.06387089)" /><linearGradient
       id="linearGradient1"
       inkscape:collect="always"><stop
         style="stop-color:#ffe100;stop-opacity:1;"
         offset="0"
         id="stop1" /><stop
         style="stop-color:#fff6b3;stop-opacity:1;"
         offset="1"
         id="stop2" /></linearGradient><filter
       style="color-interpolation-filters:sRGB"
       inkscape:label="Drop Shadow"
       id="filter21"
       x="-0.026204732"
       y="-0.026204723"
       width="1.0524095"
       height="1.0524094"><feFlood
         result="flood"
         in="SourceGraphic"
         flood-opacity="0.749020"
         flood-color="rgb(0,0,0)"
         id="feFlood20" /><feGaussianBlur
         result="blur"
         in="SourceGraphic"
         stdDeviation="1.300000"
         id="feGaussianBlur20" /><feOffset
         result="offset"
         in="blur"
         dx="0.000000"
         dy="0.000000"
         id="feOffset20" /><feComposite
         result="comp1"
         operator="in"
         in="flood"
         in2="offset"
         id="feComposite20" /><feComposite
         result="comp2"
         operator="over"
         in="SourceGraphic"
         in2="comp1"
         id="feComposite21" /></filter></defs><circle
     style="fill:#232321;fill-opacity:1;stroke-width:0;stroke-linecap:round;stroke-opacity:0.5"
     id="path1"
     cx="4.2333341"
     cy="4.2333336"
     r="3.5966461" /><path
     d="m 4.2333324,8.3343762 q -0.8483509,0 -1.5921696,-0.3216505 Q 1.8973466,7.6950961 1.3344585,7.1322076 0.77157034,6.5693198 0.449921,5.825503 0.13229166,5.0816865 0.13229166,4.2333333 q 0,-0.8483532 0.31762934,-1.5921697 Q 0.77157034,1.897347 1.3344585,1.3344588 1.8973466,0.76754976 2.6411628,0.44992001 3.3849815,0.1322903 4.2333324,0.1322903 q 0.8483532,0 1.5921694,0.31762971 0.7438187,0.31762975 1.3067065,0.88453879 0.5628885,0.5628882 0.8805174,1.3067048 0.3216492,0.7438165 0.3216492,1.5921697 0,0.8483532 -0.3216492,1.5921697 Q 7.6950968,6.5693198 7.1322083,7.1322076 6.5693205,7.6950961 5.8255018,8.0127257 5.0816856,8.3343762 4.2333324,8.3343762 Z m 0,-0.6835075 q 0.7076322,0 1.3268089,-0.2653614 Q 6.179318,7.1201458 6.6497331,6.6497317 7.1201465,6.1793181 7.3855073,5.5601414 7.6508681,4.9409643 7.6508681,4.2333333 q 0,-0.707631 -0.2653608,-1.3268081 Q 7.1201465,2.2833277 6.6497331,1.8169345 6.179318,1.3465207 5.5601413,1.0811593 4.9409646,0.81579749 4.2333324,0.81579749 q -0.7076295,0 -1.3268061,0.26536181 Q 2.2873494,1.3465207 1.8169338,1.8169345 1.3465207,2.2833277 1.08116,2.9065252 0.81579668,3.5257023 0.81579668,4.2333333 q 0,0.707631 0.26536332,1.3268081 0.2653607,0.6191767 0.7357738,1.0895903 0.4704156,0.4704141 1.0895925,0.7357756 0.6191766,0.2653614 1.3268061,0.2653614 z M 4.1770542,6.5612783 q -0.4623706,0 -0.860413,-0.1568034 Q 2.9185988,6.2476712 2.6210712,5.9622057 2.3275662,5.676741 2.1627204,5.2907603 1.9978798,4.9007593 1.9978798,4.434366 q 0,-0.4422689 0.1608208,-0.8483528 Q 2.3235412,3.1759087 2.6130315,2.8663201 2.906539,2.5567318 3.2965392,2.4039479 q 0.1326817,-0.056288 0.2010193,0.01206 0.068364,0.064331 0.020229,0.176908 -0.052258,0.1367015 -0.092483,0.3538154 -0.040199,0.2171144 -0.040199,0.3980424 0,0.5709296 0.2291847,0.9890751 0.2332041,0.4181455 0.6513435,0.6473217 0.4221666,0.2251542 0.9890746,0.2251542 0.1969997,0 0.3819605,-0.036187 0.1889598,-0.036187 0.305567,-0.076393 0.1246422,-0.040206 0.1809203,0.036187 0.056278,0.076393 0.00804,0.1889703 Q 5.9944948,5.6646753 5.7050094,5.9461198 5.4195442,6.2235435 5.0255217,6.3924097 4.6314993,6.5612756 4.1771681,6.5612756 Z M 5.3752037,3.9961162 q -0.076403,0 -0.084443,-0.088455 Q 5.2545815,3.6422995 5.2143831,3.4935359 5.1782041,3.3407524 5.0977808,3.2643591 5.0173575,3.1879662 4.8565368,3.1437395 4.6997361,3.0995134 4.4182877,3.0472447 q -0.084443,-0.01206 -0.084443,-0.092475 0,-0.080413 0.084443,-0.088455 0.2814429,-0.040207 0.4382491,-0.080413 0.1568007,-0.040207 0.2372241,-0.1206195 0.080423,-0.080413 0.1166022,-0.2372165 0.040199,-0.1568035 0.080423,-0.4261866 0.00804,-0.084433 0.084443,-0.084433 0.080423,0 0.088463,0.084433 0.040198,0.2653615 0.076403,0.4181453 0.040199,0.1487637 0.1206223,0.2291767 0.084443,0.076393 0.241244,0.1206195 0.1568008,0.044226 0.4302063,0.096495 0.084443,0.00804 0.084443,0.088455 0,0.084433 -0.092483,0.092475 -0.2734032,0.040206 -0.4342289,0.080413 -0.1568012,0.040207 -0.2372245,0.1206195 -0.080423,0.080413 -0.1206218,0.2372163 -0.036179,0.1527836 -0.068364,0.4221663 -0.00804,0.088455 -0.088463,0.088455 z"
     id="text1-5"
     style="font-size:3.175px;font-family:'SF Pro';-inkscape-font-specification:'SF Pro';text-align:center;text-anchor:middle;fill:url(#linearGradient2);fill-opacity:1;stroke-width:0.686185;stroke-linecap:round;stroke-opacity:0.501437"
     aria-label="ô›‹" /></svg>
