<?xml version="1.0" encoding="UTF-8" standalone="no"?>
<!-- Created with Inkscape (http://www.inkscape.org/) -->

<svg
   width="511.99997"
   height="511.99997"
   viewBox="0 0 135.46666 135.46666"
   version="1.1"
   id="svg1"
   xml:space="preserve"
   inkscape:version="1.4.2 (ebf0e940, 2025-05-08)"
   sodipodi:docname="icon.svg"
   inkscape:export-filename="Icon.png"
   inkscape:export-xdpi="96.000008"
   inkscape:export-ydpi="96.000008"
   xmlns:inkscape="http://www.inkscape.org/namespaces/inkscape"
   xmlns:sodipodi="http://sodipodi.sourceforge.net/DTD/sodipodi-0.dtd"
   xmlns:xlink="http://www.w3.org/1999/xlink"
   xmlns="http://www.w3.org/2000/svg"
   xmlns:svg="http://www.w3.org/2000/svg"><sodipodi:namedview
     id="namedview1"
     pagecolor="#ffffff"
     bordercolor="#000000"
     borderopacity="0.25"
     inkscape:showpageshadow="false"
     inkscape:pageopacity="0.0"
     inkscape:pagecheckerboard="0"
     inkscape:deskcolor="#d1d1d1"
     inkscape:document-units="px"
     showborder="true"
     borderlayer="false"
     inkscape:zoom="1.2476218"
     inkscape:cx="62.518948"
     inkscape:cy="212.80488"
     inkscape:window-width="3440"
     inkscape:window-height="1384"
     inkscape:window-x="0"
     inkscape:window-y="0"
     inkscape:window-maximized="0"
     inkscape:current-layer="svg1"
     showguides="true" /><defs
     id="defs1"><linearGradient
       id="swatch162"
       inkscape:swatch="solid"><stop
         style="stop-color:#000000;stop-opacity:1;"
         offset="0"
         id="stop162" /></linearGradient><filter
       style="color-interpolation-filters:sRGB;"
       inkscape:label="Drop Shadow"
       id="filter158"
       x="-0.018897638"
       y="-0.018897638"
       width="1.0377953"
       height="1.0456693"><feFlood
         result="flood"
         in="SourceGraphic"
         flood-opacity="0.501961"
         flood-color="rgb(0,0,0)"
         id="feFlood157" /><feGaussianBlur
         result="blur"
         in="SourceGraphic"
         stdDeviation="1.000000"
         id="feGaussianBlur157" /><feOffset
         result="offset"
         in="blur"
         dx="0.000000"
         dy="1.000000"
         id="feOffset157" /><feComposite
         result="comp1"
         operator="in"
         in="flood"
         in2="offset"
         id="feComposite157" /><feComposite
         result="comp2"
         operator="over"
         in="SourceGraphic"
         id="feComposite158" /></filter><filter
       style="color-interpolation-filters:sRGB"
       inkscape:label="Drop Shadow"
       id="filter5"
       x="-0.027520832"
       y="-0.027520832"
       width="1.0550417"
       height="1.0619219"><feFlood
         result="flood"
         in="SourceGraphic"
         flood-opacity="0.75"
         flood-color="rgb(0,0,0)"
         id="feFlood4" /><feGaussianBlur
         result="blur"
         in="SourceGraphic"
         stdDeviation="1.25"
         id="feGaussianBlur4" /><feOffset
         result="offset"
         in="blur"
         dx="0.000000"
         dy="0.75"
         id="feOffset4" /><feComposite
         result="comp1"
         operator="in"
         in="flood"
         in2="offset"
         id="feComposite4" /><feComposite
         result="comp2"
         operator="over"
         in="SourceGraphic"
         in2="comp1"
         id="feComposite5" /></filter><filter
       style="color-interpolation-filters:sRGB;"
       inkscape:label="Drop Shadow"
       id="filter7"
       x="-0.0090746079"
       y="-0.009070866"
       width="1.0181492"
       height="1.0219213"><feFlood
         result="flood"
         in="SourceGraphic"
         flood-opacity="1"
         flood-color="rgb(0,0,0)"
         id="feFlood6" /><feGaussianBlur
         result="blur"
         in="SourceGraphic"
         stdDeviation="0.5"
         id="feGaussianBlur6" /><feOffset
         result="offset"
         in="blur"
         dx="0.000000"
         dy="0.5"
         id="feOffset6" /><feComposite
         result="comp1"
         operator="in"
         in="flood"
         in2="offset"
         id="feComposite6" /><feComposite
         result="comp2"
         operator="over"
         in="SourceGraphic"
         in2="comp1"
         id="feComposite7" /></filter><filter
       style="color-interpolation-filters:sRGB;"
       inkscape:label="Drop Shadow"
       id="filter17"
       x="-0.039559839"
       y="-0.03955984"
       width="1.0791197"
       height="1.0791197"><feFlood
         result="flood"
         in="SourceGraphic"
         flood-opacity="0.60000000000000009"
         flood-color="rgb(0,0,0)"
         id="feFlood16" /><feGaussianBlur
         result="blur"
         in="SourceGraphic"
         stdDeviation="2"
         id="feGaussianBlur16" /><feOffset
         result="offset"
         in="blur"
         dx="0.000000"
         dy="0.000000"
         id="feOffset16" /><feComposite
         result="comp1"
         operator="in"
         in="flood"
         in2="offset"
         id="feComposite16" /><feComposite
         result="comp2"
         operator="over"
         in="SourceGraphic"
         in2="comp1"
         id="feComposite17" /></filter><linearGradient
       inkscape:collect="always"
       xlink:href="#linearGradient1"
       id="linearGradient2"
       x1="-63.137737"
       y1="215.28932"
       x2="145.4238"
       y2="5.1752243"
       gradientUnits="userSpaceOnUse"
       gradientTransform="matrix(0.56249998,0,0,0.56249998,44.315446,5.3545783)" /><linearGradient
       id="linearGradient1"
       inkscape:collect="always"><stop
         style="stop-color:#ffe100;stop-opacity:1;"
         offset="0"
         id="stop1" /><stop
         style="stop-color:#fff6b3;stop-opacity:1;"
         offset="1"
         id="stop2" /></linearGradient><filter
       style="color-interpolation-filters:sRGB;"
       inkscape:label="Drop Shadow"
       id="filter21"
       x="-0.026204732"
       y="-0.026204723"
       width="1.0524095"
       height="1.0524094"><feFlood
         result="flood"
         in="SourceGraphic"
         flood-opacity="0.749020"
         flood-color="rgb(0,0,0)"
         id="feFlood20" /><feGaussianBlur
         result="blur"
         in="SourceGraphic"
         stdDeviation="1.300000"
         id="feGaussianBlur20" /><feOffset
         result="offset"
         in="blur"
         dx="0.000000"
         dy="0.000000"
         id="feOffset20" /><feComposite
         result="comp1"
         operator="in"
         in="flood"
         in2="offset"
         id="feComposite20" /><feComposite
         result="comp2"
         operator="over"
         in="SourceGraphic"
         in2="comp1"
         id="feComposite21" /></filter></defs><path
     d="m 67.733316,127.26458 q -12.314767,0 -23.112132,-4.66912 Q 33.823856,117.98471 25.652902,109.81375 17.481947,101.6428 12.812845,90.845464 8.202098,80.04813 8.202098,67.73333 q 0,-12.314801 4.610747,-23.112134 4.669102,-10.797334 12.840057,-18.96829 8.170954,-8.229322 18.968282,-12.840075 10.797365,-4.6107525 23.112132,-4.6107525 12.314801,0 23.112129,4.6107525 10.797365,4.610753 18.968315,12.840075 8.17096,8.170956 12.7817,18.96829 4.6691,10.797333 4.6691,23.112134 0,12.3148 -4.6691,23.112134 -4.61074,10.797336 -12.7817,18.968286 -8.17095,8.17096 -18.968315,12.78171 -10.797328,4.66912 -23.112129,4.66912 z m 0,-9.92188 q 10.272077,0 19.260123,-3.85202 8.988047,-3.85202 15.816651,-10.68061 6.82858,-6.828582 10.68059,-15.816628 3.85201,-8.988053 3.85201,-19.260112 0,-10.27206 -3.85201,-19.260112 -3.85201,-9.046412 -10.68059,-15.816634 -6.828604,-6.828585 -15.816651,-10.680605 -8.988046,-3.852025 -19.260123,-3.852025 -10.272037,0 -19.260083,3.852025 -8.988049,3.85202 -15.81666,10.680605 -6.828575,6.770222 -10.680584,15.816634 -3.852047,8.988052 -3.852047,19.260112 0,10.272059 3.852047,19.260112 3.852009,8.988046 10.680584,15.816628 6.828611,6.82859 15.81666,10.68061 8.988046,3.85202 19.260083,3.85202 z m -0.816941,-15.81663 q -6.711829,0 -12.489863,-2.276179 -5.778033,-2.276181 -10.09698,-6.420034 -4.260555,-4.143841 -6.653478,-9.746786 -2.392846,-5.661303 -2.392846,-12.431525 0,-6.420031 2.334494,-12.314795 2.392847,-5.953128 6.595124,-10.447155 4.260592,-4.494023 9.921884,-6.711853 1.926023,-0.817091 2.91802,0.17506 0.992379,0.933835 0.293647,2.568019 -0.758587,1.984376 -1.342491,5.136029 -0.583532,3.151659 -0.583532,5.778033 0,8.287684 3.326873,14.357537 3.38522,6.069852 9.454983,9.396602 6.128224,3.268366 14.357531,3.268366 2.859672,0 5.544585,-0.52529 2.742964,-0.525291 4.43565,-1.108935 1.809321,-0.583639 2.626261,0.52529 0.816942,1.108935 0.116708,2.743116 -1.984376,5.019299 -6.186582,9.104782 -4.143849,4.027117 -9.863528,6.478399 -5.719679,2.451279 -12.314807,2.451279 z M 84.308863,64.289857 q -1.109081,0 -1.225788,-1.284024 -0.525179,-3.852023 -1.108705,-6.011494 -0.525178,-2.217825 -1.692613,-3.32676 -1.167435,-1.108929 -3.501928,-1.750928 -2.276139,-0.641992 -6.361678,-1.400731 -1.225789,-0.175061 -1.225789,-1.342384 0,-1.167283 1.225789,-1.284024 4.08546,-0.583644 6.361678,-1.167286 2.276139,-0.583643 3.443574,-1.750927 1.167435,-1.167285 1.692613,-3.443464 0.583532,-2.276179 1.167435,-6.186578 0.116707,-1.225638 1.225789,-1.225638 1.167435,0 1.284143,1.225638 0.583525,3.85202 1.10908,6.069849 0.583527,2.159473 1.750968,3.326758 1.225782,1.108932 3.501928,1.750927 2.276139,0.641996 6.244928,1.400732 1.22579,0.116708 1.22579,1.28403 0,1.225637 -1.342493,1.342384 -3.968754,0.583639 -6.30332,1.167282 -2.276146,0.583645 -3.44358,1.750928 -1.167435,1.167283 -1.750962,3.443461 -0.525178,2.217826 -0.992379,6.128219 -0.116707,1.28403 -1.284142,1.28403 z"
     id="text1-5"
     style="font-size:3.175px;font-family:'SF Pro';-inkscape-font-specification:'SF Pro';text-align:center;text-anchor:middle;fill:url(#linearGradient2);fill-opacity:1;stroke-width:9.96075;stroke-linecap:round;stroke-opacity:0.501437;filter:url(#filter21)"
     aria-label="ô›‹" /></svg>
