<?xml version="1.0" encoding="UTF-8" standalone="no"?>
<!-- Created with Inkscape (http://www.inkscape.org/) -->

<svg
   width="511.99997"
   height="511.99997"
   viewBox="0 0 135.46666 135.46666"
   version="1.1"
   id="svg1"
   xml:space="preserve"
   inkscape:version="1.4.2 (ebf0e940, 2025-05-08)"
   sodipodi:docname="icon.svg"
   inkscape:export-filename="Icon.png"
   inkscape:export-xdpi="96.000008"
   inkscape:export-ydpi="96.000008"
   xmlns:inkscape="http://www.inkscape.org/namespaces/inkscape"
   xmlns:sodipodi="http://sodipodi.sourceforge.net/DTD/sodipodi-0.dtd"
   xmlns="http://www.w3.org/2000/svg"
   xmlns:svg="http://www.w3.org/2000/svg"><sodipodi:namedview
     id="namedview1"
     pagecolor="#ffffff"
     bordercolor="#000000"
     borderopacity="0.25"
     inkscape:showpageshadow="false"
     inkscape:pageopacity="0.0"
     inkscape:pagecheckerboard="0"
     inkscape:deskcolor="#d1d1d1"
     inkscape:document-units="px"
     showborder="true"
     borderlayer="false"
     inkscape:zoom="1.2072268"
     inkscape:cx="55.4991"
     inkscape:cy="200.04526"
     inkscape:window-width="3440"
     inkscape:window-height="1412"
     inkscape:window-x="0"
     inkscape:window-y="0"
     inkscape:window-maximized="0"
     inkscape:current-layer="svg1"
     showguides="true" /><defs
     id="defs1"><linearGradient
       id="swatch162"
       inkscape:swatch="solid"><stop
         style="stop-color:#000000;stop-opacity:1;"
         offset="0"
         id="stop162" /></linearGradient><filter
       style="color-interpolation-filters:sRGB;"
       inkscape:label="Drop Shadow"
       id="filter158"
       x="-0.018897638"
       y="-0.018897638"
       width="1.0377953"
       height="1.0456693"><feFlood
         result="flood"
         in="SourceGraphic"
         flood-opacity="0.501961"
         flood-color="rgb(0,0,0)"
         id="feFlood157" /><feGaussianBlur
         result="blur"
         in="SourceGraphic"
         stdDeviation="1.000000"
         id="feGaussianBlur157" /><feOffset
         result="offset"
         in="blur"
         dx="0.000000"
         dy="1.000000"
         id="feOffset157" /><feComposite
         result="comp1"
         operator="in"
         in="flood"
         in2="offset"
         id="feComposite157" /><feComposite
         result="comp2"
         operator="over"
         in="SourceGraphic"
         id="feComposite158" /></filter><filter
       style="color-interpolation-filters:sRGB"
       inkscape:label="Drop Shadow"
       id="filter5"
       x="-0.027520832"
       y="-0.027520832"
       width="1.0550417"
       height="1.0619219"><feFlood
         result="flood"
         in="SourceGraphic"
         flood-opacity="0.75"
         flood-color="rgb(0,0,0)"
         id="feFlood4" /><feGaussianBlur
         result="blur"
         in="SourceGraphic"
         stdDeviation="1.25"
         id="feGaussianBlur4" /><feOffset
         result="offset"
         in="blur"
         dx="0.000000"
         dy="0.75"
         id="feOffset4" /><feComposite
         result="comp1"
         operator="in"
         in="flood"
         in2="offset"
         id="feComposite4" /><feComposite
         result="comp2"
         operator="over"
         in="SourceGraphic"
         in2="comp1"
         id="feComposite5" /></filter><filter
       style="color-interpolation-filters:sRGB;"
       inkscape:label="Drop Shadow"
       id="filter7"
       x="-0.0090746079"
       y="-0.009070866"
       width="1.0181492"
       height="1.0219213"><feFlood
         result="flood"
         in="SourceGraphic"
         flood-opacity="1"
         flood-color="rgb(0,0,0)"
         id="feFlood6" /><feGaussianBlur
         result="blur"
         in="SourceGraphic"
         stdDeviation="0.5"
         id="feGaussianBlur6" /><feOffset
         result="offset"
         in="blur"
         dx="0.000000"
         dy="0.5"
         id="feOffset6" /><feComposite
         result="comp1"
         operator="in"
         in="flood"
         in2="offset"
         id="feComposite6" /><feComposite
         result="comp2"
         operator="over"
         in="SourceGraphic"
         in2="comp1"
         id="feComposite7" /></filter><filter
       style="color-interpolation-filters:sRGB;"
       inkscape:label="Drop Shadow"
       id="filter17"
       x="-0.039559839"
       y="-0.03955984"
       width="1.0791197"
       height="1.0791197"><feFlood
         result="flood"
         in="SourceGraphic"
         flood-opacity="0.60000000000000009"
         flood-color="rgb(0,0,0)"
         id="feFlood16" /><feGaussianBlur
         result="blur"
         in="SourceGraphic"
         stdDeviation="2"
         id="feGaussianBlur16" /><feOffset
         result="offset"
         in="blur"
         dx="0.000000"
         dy="0.000000"
         id="feOffset16" /><feComposite
         result="comp1"
         operator="in"
         in="flood"
         in2="offset"
         id="feComposite16" /><feComposite
         result="comp2"
         operator="over"
         in="SourceGraphic"
         in2="comp1"
         id="feComposite17" /></filter></defs><path
     d="m 67.73333,128.40092 q -12.549864,0 -23.553298,-4.75824 Q 33.176597,118.94391 24.849673,110.61699 16.522749,102.29007 11.764507,91.286631 7.0657434,80.283197 7.0657434,67.733333 q 0,-12.549863 4.6987636,-23.553298 Q 16.522749,33.1766 24.849673,24.849677 33.176597,16.463275 44.180032,11.764511 55.183466,7.0657468 67.73333,7.0657468 q 12.549863,0 23.553298,4.6987642 11.003432,4.698764 19.330362,13.085166 8.32692,8.326923 13.02568,19.330358 4.75825,11.003435 4.75825,23.553298 0,12.549864 -4.75825,23.553298 -4.69876,11.003439 -13.02568,19.330359 -8.32693,8.32692 -19.330362,13.02569 -11.003435,4.75824 -23.553298,4.75824 z m 0,-10.11126 q 10.468132,0 19.627748,-3.92555 9.159616,-3.92555 16.118542,-10.88448 6.95893,-6.958932 10.88448,-16.118548 3.92555,-9.159616 3.92555,-19.627749 0,-10.468132 -3.92555,-19.627748 -3.92555,-9.219094 -10.88448,-16.118545 -6.958926,-6.958929 -16.118542,-10.884479 -9.159616,-3.92555 -19.627748,-3.92555 -10.468133,0 -19.627749,3.92555 -9.159616,3.92555 -16.118545,10.884479 -6.958929,6.899451 -10.884479,16.118545 -3.925549,9.159616 -3.925549,19.627748 0,10.468133 3.925549,19.627749 3.92555,9.159616 10.884479,16.118548 6.958929,6.95893 16.118545,10.88448 9.159616,3.92555 19.627749,3.92555 z m 0.475824,-15.88064 q -6.958929,0 -13.085166,-2.557553 -6.066758,-2.617033 -10.706044,-7.256319 -4.579808,-4.639286 -7.196842,-10.706045 -2.617033,-6.066758 -2.617033,-13.025687 0,-5.293545 1.486951,-10.051787 1.546429,-4.81772 4.282418,-8.802748 2.795467,-4.044505 6.483105,-7.077885 3.687637,-3.092857 8.029533,-4.936676 1.665385,-0.713736 2.617033,0.178434 0.951649,0.832693 0.29739,2.676512 -0.89217,2.200686 -1.427472,5.055632 -0.535302,2.854945 -0.535302,5.590934 0,14.45316 7.851099,22.423216 7.910577,7.910577 22.363738,7.910577 2.735989,0 5.471978,-0.475824 2.735989,-0.535302 4.52033,-1.130082 1.546429,-0.535303 2.379121,0.416346 0.892171,0.951648 0.05948,2.557555 -2.498077,5.4125 -6.958929,9.813874 -4.460852,4.341896 -10.408654,6.899451 -5.947803,2.498075 -12.906732,2.498075 z"
     id="text1"
     style="font-size:121.811px;font-family:'SF Pro';-inkscape-font-specification:'SF Pro';text-align:center;text-anchor:middle;display:inline;fill:#ffe100;stroke-width:4.34205;stroke-linecap:round;filter:url(#filter17)"
     aria-label="􀆻"
     inkscape:label="moon.circle"
     transform="matrix(0.99636827,0,0,0.99636827,0.24598725,0.24598578)" /></svg>
