<?xml version="1.0" encoding="UTF-8" standalone="no"?>
<svg
   version="1.1"
   viewBox="0 0 15.9375 15.9453"
   id="svg2"
   sodipodi:docname="toolbar-icon-dark.svg"
   inkscape:version="1.4.2 (ebf0e940, 2025-05-08)"
   inkscape:export-filename="export/toolbar-icon-dark.svg"
   inkscape:export-xdpi="96"
   inkscape:export-ydpi="96"
   xmlns:inkscape="http://www.inkscape.org/namespaces/inkscape"
   xmlns:sodipodi="http://sodipodi.sourceforge.net/DTD/sodipodi-0.dtd"
   xmlns="http://www.w3.org/2000/svg"
   xmlns:svg="http://www.w3.org/2000/svg">
  <defs
     id="defs2">
    <filter
       style="color-interpolation-filters:sRGB"
       inkscape:label="Drop Shadow"
       id="filter17"
       x="-0.039559839"
       y="-0.03955984"
       width="1.0791197"
       height="1.0791197">
      <feFlood
         result="flood"
         in="SourceGraphic"
         flood-opacity="0.60000000000000009"
         flood-color="rgb(0,0,0)"
         id="feFlood16" />
      <feGaussianBlur
         result="blur"
         in="SourceGraphic"
         stdDeviation="2"
         id="feGaussianBlur16" />
      <feOffset
         result="offset"
         in="blur"
         dx="0.000000"
         dy="0.000000"
         id="feOffset16" />
      <feComposite
         result="comp1"
         operator="in"
         in="flood"
         in2="offset"
         id="feComposite16" />
      <feComposite
         result="comp2"
         operator="over"
         in="SourceGraphic"
         in2="comp1"
         id="feComposite17" />
    </filter>
  </defs>
  <sodipodi:namedview
     id="namedview2"
     pagecolor="#ffffff"
     bordercolor="#000000"
     borderopacity="0.25"
     inkscape:showpageshadow="2"
     inkscape:pageopacity="0.0"
     inkscape:pagecheckerboard="0"
     inkscape:deskcolor="#d1d1d1"
     inkscape:zoom="44.134836"
     inkscape:cx="4.2710026"
     inkscape:cy="7.8962569"
     inkscape:window-width="3440"
     inkscape:window-height="1384"
     inkscape:window-x="0"
     inkscape:window-y="0"
     inkscape:window-maximized="0"
     inkscape:current-layer="svg2"
     showguides="true" />
  <path
     d="m 7.9687496,15.47265 q -1.5514706,0 -2.9117646,-0.588235 Q 3.6966909,14.303531 2.6672791,13.27412 1.6378673,12.244709 1.0496321,10.884414 0.46874985,9.5241201 0.46874985,7.9726498 q 0,-1.5514704 0.58088225,-2.9117645 Q 1.6378673,3.7005912 2.6672791,2.6711795 3.6966909,1.6344148 5.056985,1.0535325 6.417279,0.47265005 7.9687496,0.47265005 q 1.5514706,0 2.9117644,0.58088245 1.360294,0.5808823 2.389706,1.617647 1.029412,1.0294117 1.610293,2.3897058 0.588237,1.3602941 0.588237,2.9117645 0,1.5514703 -0.588237,2.9117642 -0.580881,1.360295 -1.610293,2.389706 -1.029412,1.029411 -2.389706,1.610295 -1.3602938,0.588235 -2.9117644,0.588235 z m 0,-1.25 q 1.2941176,0 2.4264704,-0.485294 1.132353,-0.485294 1.992647,-1.345588 0.860294,-0.860295 1.345588,-1.992648 0.485294,-1.1323525 0.485294,-2.4264702 0,-1.2941175 -0.485294,-2.4264704 Q 13.248161,4.4064735 12.387867,3.5535324 11.527573,2.6932383 10.39522,2.2079442 9.2628672,1.72265 7.9687496,1.72265 q -1.2941177,0 -2.4264706,0.4852942 -1.1323529,0.4852941 -1.992647,1.3455882 -0.8602941,0.8529411 -1.3455882,1.992647 -0.485294,1.1323529 -0.485294,2.4264704 0,1.2941177 0.485294,2.4264702 0.4852941,1.132353 1.3455882,1.992648 0.8602941,0.860294 1.992647,1.345588 1.1323529,0.485294 2.4264706,0.485294 z m 0.058824,-1.963236 q -0.8602941,0 -1.6176471,-0.316176 Q 5.6599261,11.619708 5.0863968,11.046179 4.5202203,10.47265 4.1966908,9.7226501 3.8731614,8.9726499 3.8731614,8.1123558 q 0,-0.6544119 0.1838236,-1.2426471 0.1911765,-0.5955882 0.5294117,-1.0882353 0.3455882,-0.4999999 0.8014706,-0.875 0.4558823,-0.3823528 0.992647,-0.610294 0.2058824,-0.088235 0.3235294,0.022059 0.1176471,0.1029412 0.036765,0.3308824 -0.1102941,0.2720587 -0.1764705,0.625 -0.066177,0.3529411 -0.066177,0.6911764 0,1.7867646 0.9705883,2.7720587 0.9779411,0.9779412 2.7647055,0.9779412 0.338236,0 0.676471,-0.05882 0.338235,-0.06618 0.558823,-0.139706 0.191177,-0.06618 0.294118,0.05147 0.110294,0.117647 0.0074,0.316176 -0.308823,0.6691179 -0.860294,1.2132359 -0.551471,0.536764 -1.2867648,0.852941 -0.7352939,0.308823 -1.595588,0.308823 z"
     id="text1"
     style="font-size:121.811px;font-family:'SF Pro';-inkscape-font-specification:'SF Pro';text-align:center;text-anchor:middle;display:inline;fill:#000000;stroke-width:0.536784;stroke-linecap:round"
     aria-label="􀆻"
     inkscape:label="moon.circle" />
</svg>
