<?xml version="1.0" encoding="UTF-8" standalone="no"?>
<svg
   version="1.1"
   viewBox="0 0 15.9375 15.9453"
   id="svg2"
   sodipodi:docname="toolbar-icon-dark.svg"
   inkscape:version="1.3.2 (091e20e, 2023-11-25)"
   inkscape:export-filename="export/toolbar-icon-dark.svg"
   inkscape:export-xdpi="96"
   inkscape:export-ydpi="96"
   xmlns:inkscape="http://www.inkscape.org/namespaces/inkscape"
   xmlns:sodipodi="http://sodipodi.sourceforge.net/DTD/sodipodi-0.dtd"
   xmlns="http://www.w3.org/2000/svg"
   xmlns:svg="http://www.w3.org/2000/svg">
  <defs
     id="defs2" />
  <sodipodi:namedview
     id="namedview2"
     pagecolor="#ffffff"
     bordercolor="#000000"
     borderopacity="0.25"
     inkscape:showpageshadow="2"
     inkscape:pageopacity="0.0"
     inkscape:pagecheckerboard="0"
     inkscape:deskcolor="#d1d1d1"
     inkscape:zoom="30.394406"
     inkscape:cx="8.2087473"
     inkscape:cy="13.637378"
     inkscape:window-width="3440"
     inkscape:window-height="1384"
     inkscape:window-x="0"
     inkscape:window-y="0"
     inkscape:window-maximized="0"
     inkscape:current-layer="svg2"
     showguides="true" />
  <path
     d="M 6.9750169,0.0105466 C 3.5658842,0.4388296 0.84771476,2.9685545 0.09964712,6.3948185 -0.0602452,7.1371757 -0.07166608,8.6961258 0.07680536,9.4613248 0.28809164,10.546308 0.72208508,11.597029 1.3388126,12.51641 c 0.376889,0.559623 1.2505864,1.461873 1.8501826,1.912998 0.8908286,0.668121 2.181388,1.244876 3.2892134,1.461872 0.5367814,0.108499 2.4326474,0.108499 2.9694288,0 C 12.645484,15.263132 15.112394,12.853326 15.826199,9.6554798 15.997512,8.867439 16.014643,7.2228323 15.854751,6.4633438 15.494993,4.778764 14.79832,3.4996254 13.593417,2.2947226 12.417066,1.1240824 11.160769,0.44454004 9.5732671,0.11904496 8.9051456,-0.0180056 7.6202966,-0.06939956 6.9750169,0.0105466 Z m 2.2955969,1.4561622 c 1.4618722,0.3026533 2.8609302,1.1363776 3.7917322,2.2556238 1.68458,2.0329166 2.021496,4.8196114 0.867987,7.1723124 -1.067852,2.187099 -3.226399,3.614709 -5.6076523,3.717497 C 6.3582894,14.697798 4.6337365,14.035387 3.2803622,12.664882 1.5786511,10.946039 0.94479224,8.5647857 1.5672302,6.2406366 2.252483,3.6823595 4.5081068,1.7236786 7.1634614,1.3810522 c 0.51965,-0.062815 1.5817919,-0.022842 2.1071524,0.085657 z"
     id="path1-9"
     style="stroke-width:0.00571044" />
  <path
     d="M 6.015663,4.1791678 C 5.1476761,4.6131612 4.4795546,5.2869932 4.056982,6.1435592 3.7486183,6.7717076 3.6458304,7.1771488 3.6115677,7.9252164 c -0.039973,0.8051721 0.074236,1.4161892 0.3825995,2.0671793 0.285522,0.5938853 0.5025187,0.9079603 0.90796,1.3076903 0.8394346,0.833725 1.9129974,1.273429 3.1179002,1.273429 0.8965391,0 1.621765,-0.199866 2.3469906,-0.633859 0.845145,-0.51394 1.735974,-1.633186 1.735974,-2.1870988 0,-0.3140742 -0.13134,-0.3483368 -0.696674,-0.1941549 C 10.801012,9.7182946 9.6988968,9.7354259 9.1335632,9.5869545 8.1285258,9.3242742 7.3290642,8.6904154 6.9236229,7.8338494 6.6609427,7.2799367 6.586707,7.011546 6.5296026,6.4062394 6.483919,5.8922998 6.5752861,5.2470201 6.769441,4.6816865 6.9293334,4.2020096 6.9350438,4.156326 6.8151246,4.0421172 6.678074,3.8993562 6.5010504,3.9336189 6.015663,4.1791678 Z"
     id="path2"
     style="stroke-width:0.00571044" />
</svg>
