<?xml version="1.0" encoding="UTF-8" standalone="no"?>
<svg
   version="1.1"
   viewBox="0 0 15.9375 15.9453"
   id="svg2"
   sodipodi:docname="toolbar-icon-dark.svg"
   inkscape:version="1.4.2 (ebf0e940, 2025-05-08)"
   inkscape:export-filename="export/toolbar-icon.svg"
   inkscape:export-xdpi="96"
   inkscape:export-ydpi="96"
   xmlns:inkscape="http://www.inkscape.org/namespaces/inkscape"
   xmlns:sodipodi="http://sodipodi.sourceforge.net/DTD/sodipodi-0.dtd"
   xmlns="http://www.w3.org/2000/svg"
   xmlns:svg="http://www.w3.org/2000/svg">
  <defs
     id="defs2" />
  <sodipodi:namedview
     id="namedview2"
     pagecolor="#ffffff"
     bordercolor="#000000"
     borderopacity="0.25"
     inkscape:showpageshadow="2"
     inkscape:pageopacity="0.0"
     inkscape:pagecheckerboard="0"
     inkscape:deskcolor="#d1d1d1"
     inkscape:zoom="64.629044"
     inkscape:cx="1.3616169"
     inkscape:cy="8.2702755"
     inkscape:window-width="3440"
     inkscape:window-height="1384"
     inkscape:window-x="0"
     inkscape:window-y="0"
     inkscape:window-maximized="0"
     inkscape:current-layer="svg2"
     showguides="true" />
  <path
     d="m 7.96875,15.47265 q -1.551471,0 -2.911765,-0.588235 Q 3.696691,14.303532 2.667279,13.274121 1.637867,12.237356 1.049632,10.884415 0.46875,9.5241211 0.46875,7.9726501 q 0,-1.551471 0.580882,-2.911765 0.588235,-1.360294 1.617647,-2.389706 1.029412,-1.029412 2.389706,-1.610294 1.360294,-0.58823505 2.911765,-0.58823505 1.55147,0 2.911765,0.58823505 1.360294,0.580882 2.389705,1.610294 1.029412,1.029412 1.610295,2.389706 0.588235,1.360294 0.588235,2.911765 0,1.551471 -0.588235,2.9117649 -0.580883,1.352941 -1.610295,2.389706 -1.029411,1.029411 -2.389705,1.610294 Q 9.52022,15.47265 7.96875,15.47265 Z m 0.07353,-3.080882 q 0.889706,0 1.639706,-0.32353 0.757353,-0.323529 1.32353,-0.875 0.573529,-0.558823 0.889706,-1.2499999 0.102941,-0.205882 -0.0074,-0.323529 -0.110294,-0.125 -0.301471,-0.05882 -0.220588,0.08088 -0.573529,0.147059 -0.352941,0.05882 -0.69853,0.05882 -1.838235,0 -2.845588,-1.014706 -1.007353,-1.014706 -1.007353,-2.852941 0,-0.345589 0.06618,-0.705883 0.07353,-0.367647 0.183823,-0.647059 0.08824,-0.227941 -0.03676,-0.338235 -0.125,-0.117647 -0.338236,-0.02941 -0.55147,0.242647 -1.022059,0.632353 -0.470588,0.389706 -0.823529,0.904412 -0.345588,0.514706 -0.544118,1.125 -0.191176,0.602941 -0.191176,1.279412 0,0.882353 0.330882,1.661765 0.330883,0.7720579 0.919118,1.3602939 0.595588,0.588235 1.367647,0.919117 0.779412,0.330883 1.669118,0.330883 z"
     id="text2"
     style="font-size:48px;font-family:'SF Pro';-inkscape-font-specification:'SF Pro';text-align:center;text-anchor:middle;stroke-width:0.536784;stroke-linecap:round;fill:#000000;fill-opacity:1"
     aria-label="􀆼"
     inkscape:label="moon.circle.fill" />
</svg>
