<?xml version="1.0" encoding="UTF-8" standalone="no"?>
<svg
   version="1.1"
   viewBox="0 0 15.9375 15.9453"
   id="svg2"
   sodipodi:docname="toolbar-icon.svg"
   inkscape:version="1.4.3 (0d15f75, 2025-12-25)"
   inkscape:export-filename="export/toolbar-icon-dark.svg"
   inkscape:export-xdpi="96"
   inkscape:export-ydpi="96"
   xmlns:inkscape="http://www.inkscape.org/namespaces/inkscape"
   xmlns:sodipodi="http://sodipodi.sourceforge.net/DTD/sodipodi-0.dtd"
   xmlns="http://www.w3.org/2000/svg"
   xmlns:svg="http://www.w3.org/2000/svg">
  <defs
     id="defs2">
    <filter
       style="color-interpolation-filters:sRGB"
       inkscape:label="Drop Shadow"
       id="filter17"
       x="-0.039559839"
       y="-0.03955984"
       width="1.0791197"
       height="1.0791197">
      <feFlood
         result="flood"
         in="SourceGraphic"
         flood-opacity="0.60000000000000009"
         flood-color="rgb(0,0,0)"
         id="feFlood16" />
      <feGaussianBlur
         result="blur"
         in="SourceGraphic"
         stdDeviation="2"
         id="feGaussianBlur16" />
      <feOffset
         result="offset"
         in="blur"
         dx="0.000000"
         dy="0.000000"
         id="feOffset16" />
      <feComposite
         result="comp1"
         operator="in"
         in="flood"
         in2="offset"
         id="feComposite16" />
      <feComposite
         result="comp2"
         operator="over"
         in="SourceGraphic"
         in2="comp1"
         id="feComposite17" />
    </filter>
  </defs>
  <sodipodi:namedview
     id="namedview2"
     pagecolor="#ffffff"
     bordercolor="#000000"
     borderopacity="0.25"
     inkscape:showpageshadow="2"
     inkscape:pageopacity="0.0"
     inkscape:pagecheckerboard="0"
     inkscape:deskcolor="#d1d1d1"
     inkscape:zoom="44.659819"
     inkscape:cx="5.8441795"
     inkscape:cy="8.8110522"
     inkscape:window-width="2112"
     inkscape:window-height="1158"
     inkscape:window-x="0"
     inkscape:window-y="0"
     inkscape:window-maximized="0"
     inkscape:current-layer="svg2"
     showguides="true" />
  <path
     d="m 7.96875,15.47265 q -1.5514688,0 -2.9117719,-0.588234 Q 3.6966844,14.303541 2.6672812,13.274128 1.6378687,12.244716 1.0496344,10.884422 0.46875,9.5241188 0.46875,7.9726501 0.46875,6.4211813 1.0496344,5.0608876 1.6378687,3.7005938 2.6672812,2.6711813 3.6966844,1.6344188 5.0569781,1.0535344 6.4172812,0.47265008 7.96875,0.47265008 q 1.5514688,0 2.911762,0.58088432 1.360304,0.5808844 2.389707,1.6176469 1.029412,1.0294125 1.610297,2.3897063 0.588234,1.3602937 0.588234,2.9117625 0,1.5514687 -0.588234,2.9117719 -0.580885,1.360294 -1.610297,2.389706 -1.029403,1.029413 -2.389706,1.610288 Q 9.5202188,15.47265 7.96875,15.47265 Z m 0,-1.249997 q 1.2941156,0 2.426475,-0.485297 1.13235,-0.485287 1.992647,-1.345584 0.860287,-0.860297 1.345584,-1.992647 0.485297,-1.1323593 0.485297,-2.4264749 0,-1.2941156 -0.485297,-2.4264656 Q 13.248159,4.4064751 12.387872,3.5535376 11.527575,2.6932407 10.395225,2.2079438 9.2628656,1.722647 7.96875,1.722647 q -1.2941156,0 -2.4264656,0.4852968 Q 4.409925,2.6932407 3.5496281,3.5535376 2.6893406,4.4064751 2.2040437,5.5461845 q -0.4852968,1.13235 -0.4852968,2.4264656 0,1.2941156 0.4852968,2.4264749 0.4852969,1.13235 1.3455844,1.992647 0.8602969,0.860297 1.9926563,1.345584 1.13235,0.485297 2.4264656,0.485297 z M 7.8658219,12.230006 q -0.8455782,0 -1.5735188,-0.286762 Q 5.5643625,11.656481 5.0202375,11.134416 4.4834719,10.612359 4.1820094,9.9064781 3.8805469,9.193247 3.8805469,8.3403001 q 0,-0.8088188 0.2941031,-1.5514688 0.3014625,-0.75 0.8308875,-1.316175 0.5367656,-0.566175 1.2499969,-0.8455875 0.2426531,-0.1029468 0.3676312,0.022031 0.125025,0.1176469 0.037031,0.3235312 -0.095569,0.2500032 -0.1691344,0.6470625 -0.0735,0.3970594 -0.0735,0.7279407 0,1.0441125 0.4191375,1.8088218 0.4264781,0.7647094 1.1911781,1.1838282 0.7720594,0.4117593 1.8088219,0.4117593 0.3602723,0 0.6985313,-0.066187 0.345572,-0.066187 0.558825,-0.1397062 0.227944,-0.0735 0.330863,0.066187 0.102928,0.1397062 0.01472,0.3455905 -0.250004,0.6323442 -0.779419,1.1470602 -0.522057,0.507346 -1.2426474,0.816168 -0.7205906,0.308822 -1.5514688,0.308822 z M 10.057003,7.5388313 q -0.1397249,0 -0.1544249,-0.1617656 Q 9.8363906,6.8917688 9.7629,6.6197063 9.6967125,6.3402938 9.5496563,6.2005876 9.4025719,6.0608813 9.1084688,5.9800032 8.8217063,5.899097 8.3069906,5.8035282 8.1525656,5.781497 8.1525656,5.6344126 q 0,-0.1470656 0.154425,-0.1617656 0.5147063,-0.0735 0.8014782,-0.1470657 0.2867531,-0.0735 0.4338374,-0.2205843 0.147075,-0.1470657 0.2132344,-0.4338282 0.0735,-0.2867625 0.1470844,-0.7794093 0.014719,-0.1544063 0.154425,-0.1544063 0.147084,0 0.161784,0.1544063 0.0735,0.4852968 0.139725,0.7647093 0.0735,0.2720532 0.220594,0.4191188 0.154435,0.1397062 0.441188,0.2205844 0.286762,0.080906 0.786768,0.176475 0.154425,0.014719 0.154425,0.1617656 0,0.1544062 -0.169134,0.1691156 -0.499997,0.0735 -0.794119,0.1470656 -0.286753,0.0735 -0.433837,0.2205844 -0.147075,0.1470563 -0.220585,0.4338281 -0.06619,0.2794032 -0.125025,0.77205 -0.01472,0.161775 -0.161784,0.161775 z"
     id="text1-7"
     style="font-size:3.175px;font-family:'SF Pro';-inkscape-font-specification:'SF Pro';text-align:center;text-anchor:middle;fill:#000000;fill-opacity:1;stroke-width:1.2549;stroke-linecap:round;stroke-opacity:0.501437"
     aria-label="ô›‹"
     inkscape:label="moon.circle" />
</svg>
