<?xml version="1.0" encoding="UTF-8" standalone="no"?>
<svg
   version="1.1"
   viewBox="0 0 15.9375 15.9453"
   id="svg2"
   sodipodi:docname="toolbar-icon-site-dark.svg"
   inkscape:version="1.3.2 (091e20e, 2023-11-25)"
   inkscape:export-filename="export/toolbar-icon.svg"
   inkscape:export-xdpi="96"
   inkscape:export-ydpi="96"
   xmlns:inkscape="http://www.inkscape.org/namespaces/inkscape"
   xmlns:sodipodi="http://sodipodi.sourceforge.net/DTD/sodipodi-0.dtd"
   xmlns="http://www.w3.org/2000/svg"
   xmlns:svg="http://www.w3.org/2000/svg">
  <defs
     id="defs2" />
  <sodipodi:namedview
     id="namedview2"
     pagecolor="#ffffff"
     bordercolor="#000000"
     borderopacity="0.25"
     inkscape:showpageshadow="2"
     inkscape:pageopacity="0.0"
     inkscape:pagecheckerboard="0"
     inkscape:deskcolor="#d1d1d1"
     inkscape:zoom="43.539418"
     inkscape:cx="0.88425618"
     inkscape:cy="9.7957211"
     inkscape:window-width="3440"
     inkscape:window-height="1384"
     inkscape:window-x="0"
     inkscape:window-y="0"
     inkscape:window-maximized="1"
     inkscape:current-layer="svg2"
     showguides="true" />
  <path
     d="M 4.9824479,1.332212 C 3.57201,2.0374321 2.4863411,3.1323769 1.7996807,4.5242575 1.2986025,5.5449739 1.1315759,6.2037954 1.0758974,7.4193715 c -0.064953,1.30837 0.1206322,2.3012467 0.6217099,3.3590635 0.4639592,0.965053 0.8165713,1.475408 1.4753954,2.124954 1.3640441,1.354751 3.1085357,2.069261 5.0664482,2.069261 1.4568316,0 2.6352961,-0.324777 3.8137671,-1.029988 1.373311,-0.835124 2.820876,-2.653853 2.820876,-3.553933 0,-0.5103663 -0.213436,-0.5660349 -1.132057,-0.315505 -0.983606,0.259822 -2.774493,0.287664 -3.693142,0.04636 C 8.4157555,9.6927806 7.1166683,8.6627882 6.4578429,7.2709029 6.0310002,6.3708231 5.9103698,5.9346989 5.8175761,4.9511007 5.7433439,4.1159725 5.891812,3.0674189 6.2073027,2.1487813 6.4671221,1.3693273 6.4764004,1.2950929 6.2815384,1.1095102 6.0588362,0.87752594 5.7711816,0.93320693 4.9824479,1.332212 Z"
     id="path2-0"
     style="stroke-width:0.00927938;fill:#000000;fill-opacity:0.25;stroke:none;stroke-opacity:1"
     inkscape:label="path2" />
</svg>
