<?xml version="1.0" encoding="UTF-8" standalone="no"?>
<svg
   version="1.1"
   viewBox="0 0 15.9375 15.9453"
   id="svg2"
   sodipodi:docname="toolbar-icon.svg"
   inkscape:version="1.3.2 (091e20e, 2023-11-25)"
   inkscape:export-filename="export/toolbar-icon.svg"
   inkscape:export-xdpi="96"
   inkscape:export-ydpi="96"
   xmlns:inkscape="http://www.inkscape.org/namespaces/inkscape"
   xmlns:sodipodi="http://sodipodi.sourceforge.net/DTD/sodipodi-0.dtd"
   xmlns="http://www.w3.org/2000/svg"
   xmlns:svg="http://www.w3.org/2000/svg">
  <defs
     id="defs2" />
  <sodipodi:namedview
     id="namedview2"
     pagecolor="#ffffff"
     bordercolor="#000000"
     borderopacity="0.25"
     inkscape:showpageshadow="2"
     inkscape:pageopacity="0.0"
     inkscape:pagecheckerboard="0"
     inkscape:deskcolor="#d1d1d1"
     inkscape:zoom="41.504035"
     inkscape:cx="2.7105798"
     inkscape:cy="8.420868"
     inkscape:window-width="3440"
     inkscape:window-height="1384"
     inkscape:window-x="0"
     inkscape:window-y="0"
     inkscape:window-maximized="1"
     inkscape:current-layer="svg2"
     showguides="true" />
  <path
     d="M 5.2521413,1.9288765 C 3.9692354,2.5703305 2.9817329,3.5662702 2.3571605,4.8322967 1.9013899,5.7607197 1.7494658,6.3599705 1.6988218,7.465634 c -0.05908,1.1900669 0.1097246,2.0931676 0.5654947,3.055336 0.4220079,0.877793 0.7427368,1.342001 1.3419899,1.932816 1.240707,1.232253 2.8274614,1.882158 4.6083392,1.882158 1.3251046,0 2.3970124,-0.295411 3.4689254,-0.936857 1.249136,-0.759612 2.565812,-2.413891 2.565812,-3.232585 0,-0.4642191 -0.194137,-0.5148542 -1.029696,-0.2869772 C 12.325019,10.115854 10.696064,10.141178 9.8604791,9.9216918 8.3750087,9.5334811 7.1933851,8.5966207 6.5941308,7.33059 6.2058833,6.5118955 6.0961604,6.1152057 6.011757,5.2205446 5.9442369,4.4609289 6.0792805,3.5071856 6.3662446,2.6716114 6.602571,1.9626358 6.6110103,1.8951136 6.4337678,1.7263114 6.2312024,1.5153032 5.9695576,1.5659495 5.2521413,1.9288765 Z"
     id="path2-0"
     style="fill:none;stroke:#000000;stroke-width:1.27341;stroke-dasharray:none;stroke-opacity:1"
     inkscape:label="path2" />
</svg>
